<svg xmlns="http://www.w3.org/2000/svg" xmlns:xlink="http://www.w3.org/1999/xlink" width="1024" zoomAndPan="magnify" viewBox="0 0 768 767.999994" height="1024" preserveAspectRatio="xMidYMid meet" version="1.0"><defs><clipPath id="083b5d9ffe"><path d="M 171.832031 171.832031 L 596.332031 171.832031 L 596.332031 596.332031 L 171.832031 596.332031 Z M 171.832031 171.832031 " clip-rule="nonzero"/></clipPath><clipPath id="6444407e6f"><path d="M 352 288.082031 L 416 288.082031 L 416 408 L 352 408 Z M 352 288.082031 " clip-rule="nonzero"/></clipPath><clipPath id="ae12515826"><path d="M 230.398438 431 L 537.601562 431 L 537.601562 483 L 230.398438 483 Z M 230.398438 431 " clip-rule="nonzero"/></clipPath><clipPath id="1c5fb5717e"><path d="M 364.203125 250.355469 L 404 250.355469 L 404 288.757812 L 364.203125 288.757812 Z M 364.203125 250.355469 " clip-rule="nonzero"/></clipPath><clipPath id="5071b82336"><path d="M 403.796875 269.21875 L 443.734375 269.21875 L 443.734375 307.617188 L 403.796875 307.617188 Z M 403.796875 269.21875 " clip-rule="nonzero"/></clipPath><clipPath id="1adeaafcba"><path d="M 324.605469 269.21875 L 364.539062 269.21875 L 364.539062 307.617188 L 324.605469 307.617188 Z M 324.605469 269.21875 " clip-rule="nonzero"/></clipPath></defs><g clip-path="url(#083b5d9ffe)"><path fill="#fad02c" d="M 383.996094 171.832031 C 266.890625 171.832031 171.832031 266.890625 171.832031 383.996094 C 171.832031 501.097656 266.890625 596.15625 383.996094 596.15625 C 501.097656 596.15625 596.15625 501.097656 596.15625 383.996094 C 596.15625 266.890625 501.097656 171.832031 383.996094 171.832031 Z M 383.996094 183.621094 C 494.730469 183.621094 584.371094 273.261719 584.371094 383.996094 C 584.371094 494.730469 494.730469 584.371094 383.996094 584.371094 C 273.261719 584.371094 183.621094 494.730469 183.621094 383.996094 C 183.621094 273.261719 273.261719 183.621094 383.996094 183.621094 Z M 383.996094 183.621094 " fill-opacity="1" fill-rule="nonzero"/></g><g clip-path="url(#6444407e6f)"><path fill="#ffdd12" d="M 415.464844 357.625 L 384.035156 407.511719 L 352.617188 357.625 C 352.617188 357.625 354.960938 312.242188 384.042969 288.105469 C 413.117188 312.242188 415.464844 357.625 415.464844 357.625 Z M 415.464844 357.625 " fill-opacity="1" fill-rule="nonzero"/></g><path fill="#ffd110" d="M 384.035156 464.746094 C 384.035156 464.746094 384.023438 464.703125 384.007812 464.636719 C 383.988281 464.703125 383.976562 464.746094 383.976562 464.746094 C 290.125 398.289062 344.640625 306.738281 344.640625 306.738281 C 367.265625 334.617188 378.667969 362.992188 384.011719 387.867188 C 389.355469 362.996094 400.761719 334.617188 423.386719 306.738281 C 423.378906 306.738281 477.890625 398.289062 384.035156 464.746094 Z M 384.035156 464.746094 " fill-opacity="1" fill-rule="nonzero"/><path fill="#ffc50d" d="M 383.980469 464.746094 C 252.203125 464.746094 284.914062 335.792969 284.914062 335.792969 C 370.703125 397.925781 383.980469 464.746094 383.980469 464.746094 Z M 384.035156 464.746094 C 515.808594 464.746094 483.105469 335.792969 483.105469 335.792969 C 397.308594 397.925781 384.035156 464.746094 384.035156 464.746094 Z M 384.035156 464.746094 " fill-opacity="1" fill-rule="nonzero"/><g clip-path="url(#ae12515826)"><path fill="#ffb90b" d="M 230.398438 439.488281 C 319.988281 412.035156 383.980469 464.753906 383.980469 464.753906 C 309.558594 516.902344 230.398438 439.488281 230.398438 439.488281 Z M 537.617188 439.488281 C 448.03125 412.035156 384.035156 464.753906 384.035156 464.753906 C 458.460938 516.902344 537.617188 439.488281 537.617188 439.488281 Z M 537.617188 439.488281 " fill-opacity="1" fill-rule="nonzero"/></g><g clip-path="url(#1c5fb5717e)"><path fill="#fbca41" d="M 403.359375 267 L 395.292969 274.933594 L 397.195312 286.136719 C 397.332031 286.9375 397.003906 287.742188 396.355469 288.21875 C 395.988281 288.488281 395.554688 288.625 395.117188 288.625 C 394.78125 288.625 394.445312 288.542969 394.136719 288.378906 L 384.167969 283.089844 L 374.199219 288.378906 C 373.488281 288.757812 372.628906 288.695312 371.980469 288.21875 C 371.332031 287.742188 371.007812 286.9375 371.140625 286.136719 L 373.046875 274.933594 L 364.980469 267 C 364.40625 266.433594 364.199219 265.589844 364.449219 264.820312 C 364.695312 264.050781 365.355469 263.488281 366.148438 263.371094 L 377.296875 261.738281 L 382.277344 251.542969 C 382.632812 250.816406 383.363281 250.359375 384.167969 250.359375 C 384.96875 250.359375 385.703125 250.816406 386.058594 251.542969 L 391.042969 261.738281 L 402.1875 263.371094 C 402.980469 263.488281 403.640625 264.050781 403.890625 264.820312 C 404.136719 265.589844 403.929688 266.433594 403.355469 267 Z M 403.359375 267 " fill-opacity="1" fill-rule="nonzero"/></g><g clip-path="url(#5071b82336)"><path fill="#fbca41" d="M 442.957031 285.863281 L 434.890625 293.796875 L 436.792969 305 C 436.929688 305.800781 436.601562 306.605469 435.953125 307.082031 C 435.585938 307.351562 435.152344 307.484375 434.714844 307.484375 C 434.378906 307.484375 434.042969 307.40625 433.734375 307.242188 L 423.765625 301.953125 L 413.796875 307.242188 C 413.085938 307.621094 412.226562 307.554688 411.578125 307.082031 C 410.929688 306.605469 410.605469 305.800781 410.738281 305 L 412.644531 293.796875 L 404.578125 285.863281 C 404.003906 285.296875 403.796875 284.453125 404.046875 283.683594 C 404.292969 282.914062 404.953125 282.351562 405.746094 282.234375 L 416.890625 280.601562 L 421.875 270.40625 C 422.230469 269.679688 422.960938 269.222656 423.765625 269.222656 C 424.566406 269.222656 425.300781 269.679688 425.65625 270.40625 L 430.640625 280.601562 L 441.785156 282.234375 C 442.578125 282.351562 443.238281 282.914062 443.488281 283.683594 C 443.734375 284.453125 443.527344 285.296875 442.953125 285.863281 Z M 442.957031 285.863281 " fill-opacity="1" fill-rule="nonzero"/></g><g clip-path="url(#1adeaafcba)"><path fill="#fbca41" d="M 363.761719 285.863281 L 355.695312 293.796875 L 357.597656 305 C 357.734375 305.800781 357.40625 306.605469 356.757812 307.082031 C 356.394531 307.351562 355.957031 307.484375 355.519531 307.484375 C 355.183594 307.484375 354.847656 307.40625 354.539062 307.242188 L 344.570312 301.953125 L 334.601562 307.242188 C 333.890625 307.621094 333.03125 307.554688 332.382812 307.082031 C 331.734375 306.605469 331.410156 305.800781 331.542969 305 L 333.449219 293.796875 L 325.382812 285.863281 C 324.808594 285.296875 324.601562 284.453125 324.851562 283.683594 C 325.097656 282.914062 325.757812 282.351562 326.550781 282.234375 L 337.699219 280.601562 L 342.679688 270.40625 C 343.035156 269.679688 343.769531 269.222656 344.570312 269.222656 C 345.371094 269.222656 346.105469 269.679688 346.460938 270.40625 L 351.445312 280.601562 L 362.589844 282.234375 C 363.382812 282.351562 364.042969 282.914062 364.292969 283.683594 C 364.539062 284.453125 364.332031 285.296875 363.757812 285.863281 Z M 363.761719 285.863281 " fill-opacity="1" fill-rule="nonzero"/></g></svg>